<?xml version="1.0" standalone="no"?>
<!DOCTYPE svg PUBLIC "-//W3C//DTD SVG 20010904//EN"
 "http://www.w3.org/TR/2001/REC-SVG-20010904/DTD/svg10.dtd">
<svg version="1.0" xmlns="http://www.w3.org/2000/svg"
 width="232.000000pt" height="232.000000pt" viewBox="0 0 232.000000 232.000000"
 preserveAspectRatio="xMidYMid meet">

<g transform="translate(0.000000,232.000000) scale(0.100000,-0.100000)"
fill="#000000" stroke="none">
<path d="M203 2302 c-100 -35 -171 -115 -193 -216 -8 -36 -10 -322 -8 -956 l3
-905 28 -57 c32 -64 80 -111 146 -142 46 -21 51 -21 981 -21 l935 0 57 28 c64
32 111 80 142 146 21 46 21 51 21 981 0 930 0 935 -21 981 -31 66 -78 114
-142 146 l-57 28 -920 2 c-863 2 -923 1 -972 -15z m1039 -242 c52 -35 81 -83
86 -144 4 -48 -3 -70 -81 -257 -47 -112 -156 -375 -242 -584 -86 -209 -164
-395 -173 -414 -24 -51 -94 -91 -158 -91 -89 0 -137 29 -176 104 -36 71 -27
102 172 586 100 245 207 506 237 580 66 165 89 201 145 229 57 29 141 25 190
-9z m194 -956 c21 -17 46 -47 57 -67 36 -69 27 -110 -77 -361 -52 -125 -105
-239 -118 -253 -91 -98 -254 -71 -309 52 -32 69 -25 99 73 342 120 296 147
327 275 320 52 -2 69 -8 99 -33z"/>
</g>
</svg>
